<svg width="42" height="42" id="Layer_1" xmlns="http://www.w3.org/2000/svg" viewBox="0 0 42 42"><style>.st1{fill:#fff}</style><path class="st1" d="M21 .1C9.4.1 0 9.5 0 21.1s9.4 21 21 21 21-9.4 21-21-9.4-21-21-21zm-5 11.2C16 8.4 18.4 6 21.3 6s5.3 2.4 5.3 5.3v8.9c0 2.9-2.4 5.3-5.3 5.3S16 23.1 16 20.2v-8.9zm15.1 8.9c0 4.9-3.7 9-8.4 9.7v1.9h3.1c.5 0 .9.4.9.9v.9c0 .5-.4.9-.9.9h-8.9c-.5 0-.9-.4-.9-.9v-.9c0-.5.4-.9.9-.9H20v-1.9c-4.9-.7-8.4-5.1-8.4-10.1v-2.2c0-.5.4-.9.9-.9h.9c.5 0 .9.4.9.9v2.3c0 3.7 2.7 7 6.4 7.4 4.2.4 7.8-2.9 7.8-7.1v-2.7c0-.5.4-.9.9-.9h.9c.5 0 .9.4.9.9v2.7z"/></svg>