<?xml version="1.0" encoding="utf-8"?>
<!-- Generator: Adobe Illustrator 21.1.0, SVG Export Plug-In . SVG Version: 6.00 Build 0)  -->
<svg version="1.1" width="42" height="42" id="Layer_1" xmlns="http://www.w3.org/2000/svg" xmlns:xlink="http://www.w3.org/1999/xlink" x="0px" y="0px"
	 viewBox="0 0 42 42" style="enable-background:new 0 0 42 42;" xml:space="preserve">
<style type="text/css">
	.st1{fill:#FFFFFF;}
</style>
<path class="st1" d="M21,0.1c-11.6,0-21,9.4-21,21s9.4,21,21,21c11.6,0,21-9.4,21-21S32.6,0.1,21,0.1z M16,11.3
	C16,8.4,18.4,6,21.3,6c2.9,0,5.3,2.4,5.3,5.3v8.9c0,2.9-2.4,5.3-5.3,5.3c-2.9,0-5.3-2.4-5.3-5.3V11.3z M31.1,20.2
	c0,4.9-3.7,9-8.4,9.7v1.9h3.1c0.5,0,0.9,0.4,0.9,0.9v0.9c0,0.5-0.4,0.9-0.9,0.9h-8.9c-0.5,0-0.9-0.4-0.9-0.9v-0.9
	c0-0.5,0.4-0.9,0.9-0.9H20v-1.9c-4.9-0.7-8.4-5.1-8.4-10.1v-2.2c0-0.5,0.4-0.9,0.9-0.9h0.9c0.5,0,0.9,0.4,0.9,0.9v2.3
	c0,3.7,2.7,7,6.4,7.4c4.2,0.4,7.8-2.9,7.8-7.1v-2.7c0-0.5,0.4-0.9,0.9-0.9h0.9c0.5,0,0.9,0.4,0.9,0.9V20.2z"/>
</svg>
