<?xml version="1.0" encoding="UTF-8" standalone="no"?>
<!DOCTYPE svg PUBLIC "-//W3C//DTD SVG 1.1//EN" "http://www.w3.org/Graphics/SVG/1.1/DTD/svg11.dtd">
<svg width="100%" height="100%" viewBox="0 0 35 35" version="1.1" xmlns="http://www.w3.org/2000/svg" xmlns:xlink="http://www.w3.org/1999/xlink" xml:space="preserve" xmlns:serif="http://www.serif.com/" style="fill-rule:evenodd;clip-rule:evenodd;stroke-linejoin:round;stroke-miterlimit:1.41421;">
    <g transform="matrix(0.789711,0,0,0.789711,3.68005,3.68005)">
        <path d="M26.938,2.613C27.614,1.518 29.507,-0.956 31.959,0.846C33.443,1.937 34.21,5.33 30.828,6.689C33.76,11.196 32.929,16.533 32.929,16.533C32.171,24.462 26.844,29.531 26.885,29.463C27.089,28.56 26.937,26.594 26.799,26.784C26.008,30.2 17.672,34.792 17.672,34.792C17.672,34.792 9.311,30.2 8.521,26.784C8.383,26.594 8.231,28.56 8.434,29.463C8.476,29.531 3.148,24.462 2.391,16.533C2.391,16.533 1.599,11.451 4.285,7.017C0.774,5.69 1.54,2.234 3.041,1.13C5.551,-0.715 7.476,1.922 8.108,2.973C8.635,2.217 10.228,0.288 13.024,1.967L13.1,1.967C14.634,1.132 18.024,-0.111 22.341,1.94C24.732,0.531 26.235,1.766 26.938,2.613ZM19.604,24.684L21.224,24.804C20.97,20.905 19.176,12.546 19.176,12.546L21.945,24.892L24.952,26.551L17.498,2.831L17.498,2.898L17.498,2.899L17.498,2.831L10.045,26.551L13.052,24.892L15.82,12.546C15.82,12.546 14.027,20.905 13.773,24.804L15.393,24.684L19.604,24.684Z" style="fill:rgb(0,114,177);"/>
    </g>
</svg>
