<?xml version="1.0" encoding="UTF-8" standalone="no"?>
<!DOCTYPE svg PUBLIC "-//W3C//DTD SVG 1.1//EN" "http://www.w3.org/Graphics/SVG/1.1/DTD/svg11.dtd">
<svg width="100%" height="100%" viewBox="0 0 35 35" version="1.1" xmlns="http://www.w3.org/2000/svg" xmlns:xlink="http://www.w3.org/1999/xlink" xml:space="preserve" xmlns:serif="http://www.serif.com/" style="fill-rule:evenodd;clip-rule:evenodd;stroke-linejoin:round;stroke-miterlimit:1.41421;">
    <g id="bear" transform="matrix(0.565408,0,0,0.571743,-1.14392,-1.65339)">
        <g transform="matrix(0.0529897,0,0,0.0529897,-14.4341,-6.76207)">
            <path d="M745.266,247.114C632.838,180.344 578.693,286.415 574.809,289.396C345.023,439.882 390.368,727.887 390.368,727.887C415.654,989.613 593.46,1156.91 592.084,1154.67C585.289,1124.86 590.364,1059.98 594.973,1066.25C621.363,1179 900.396,1330.58 900.396,1330.58C900.396,1330.58 1178.64,1179 1205.03,1066.25C1209.64,1059.98 1214.71,1124.86 1207.92,1154.67C1206.54,1156.91 1384.35,989.613 1409.63,727.887C1409.63,727.887 1454.98,439.882 1225.19,289.396C1221.31,286.415 1167.16,180.344 1054.73,247.114" style="fill:white;"/>
        </g>
        <g id="muzzle" transform="matrix(0.0529897,0,0,0.03492,-14.4341,2.60285)">
            <path d="M900,726.218C900,726.218 825.761,861.658 736.669,829.989C714.53,826.158 702.347,801.214 695.619,782.301C678.751,734.881 668.887,686.821 667.176,636.459C664.566,559.664 682.456,479.562 715.425,410.269C742.526,353.311 775.501,298.269 837.977,276.175C857.238,269.364 880.015,267.915 900,268.133C948.5,271.976 998.3,291.966 1032.46,327.339C1053.8,349.439 1068.06,375.13 1082.09,402.412C1118.55,473.31 1136.1,556.919 1132.82,636.459C1130.75,686.723 1121.15,734.906 1104.38,782.301C1097.69,801.219 1085.45,826.161 1063.33,829.989C974.239,861.658 900,726.218 900,726.218Z" style="fill:rgb(0,114,177);"/>
        </g>
        <g transform="matrix(0.548481,0,0,0.548481,-437.546,-292.172)">
            <path d="M860.487,595.643L860.487,566.126L870.618,566.126L870.618,562.318L846.131,562.318L846.131,566.126L856.263,566.126L856.263,595.643L860.487,595.643Z" style="fill:white;fill-rule:nonzero;"/>
        </g>
        <g transform="matrix(0.067418,0,0,0.0594211,-20.7212,-9.76743)">
            <path d="M555.889,312.29C555.889,312.29 498.144,179.518 417.145,246.317C370.195,285.036 350.63,422.246 516.099,434.255C529.867,435.254 555.889,312.29 555.889,312.29Z" style="fill:white;"/>
        </g>
        <g transform="matrix(0.0643587,0,0,0.0618153,-24.3529,-7.85632)">
            <path d="M745.266,245.747C745.266,245.747 875.048,136.41 1054.73,245.747" style="fill:white;"/>
        </g>
        <g transform="matrix(-0.0529897,0,0,0.0529897,78.0154,-7.38389)">
            <circle cx="606.003" cy="407.042" r="27.213" style="fill:rgb(0,114,177);"/>
        </g>
        <g transform="matrix(0.0529897,0,0,0.0529897,-11.5021,-7.38389)">
            <circle cx="606.003" cy="407.042" r="27.213" style="fill:rgb(0,114,177);"/>
        </g>
        <g transform="matrix(-0.067418,0,0,0.0594211,86.6698,-10.2649)">
            <path d="M555.889,312.29C555.889,312.29 498.144,179.518 417.145,246.317C370.195,285.036 350.63,422.246 516.099,434.255C529.867,435.254 555.889,312.29 555.889,312.29Z" style="fill:white;"/>
        </g>
    </g>
</svg>
