<?xml version="1.0" encoding="UTF-8" standalone="no"?>
<!DOCTYPE svg PUBLIC "-//W3C//DTD SVG 1.1//EN" "http://www.w3.org/Graphics/SVG/1.1/DTD/svg11.dtd">
<svg width="100%" height="100%" viewBox="0 0 50 50" version="1.1" xmlns="http://www.w3.org/2000/svg" xmlns:xlink="http://www.w3.org/1999/xlink" xml:space="preserve" xmlns:serif="http://www.serif.com/" style="fill-rule:evenodd;clip-rule:evenodd;stroke-linejoin:round;stroke-miterlimit:1.41421;">
    <g id="bear" transform="matrix(0.639787,0,0,0.646956,3.90347,7.63198)">
        <g transform="matrix(0.067418,0,0,0.0594211,-20.7212,-9.76743)">
            <path d="M555.889,312.29C555.889,312.29 498.144,179.518 417.145,246.317C370.195,285.036 350.63,422.246 516.099,434.255C529.867,435.254 555.889,312.29 555.889,312.29Z" style="fill:rgb(0,114,177);"/>
        </g>
        <g transform="matrix(0.0643587,0,0,0.0618153,-24.3529,-7.85632)">
            <path d="M745.266,245.747C745.266,245.747 875.048,136.41 1054.73,245.747" style="fill:rgb(0,114,177);"/>
        </g>
        <g transform="matrix(-0.067418,0,0,0.0594211,86.6698,-10.2649)">
            <path d="M555.889,312.29C555.889,312.29 498.144,179.518 417.145,246.317C370.195,285.036 350.63,422.246 516.099,434.255C529.867,435.254 555.889,312.29 555.889,312.29Z" style="fill:rgb(0,114,177);"/>
        </g>
    </g>
    <path d="M30.426,11.729C34.238,9.44 36.074,13.076 36.205,13.178C43.996,18.337 42.458,28.211 42.458,28.211C41.601,37.183 35.573,42.918 35.62,42.842C35.85,41.82 35.678,39.595 35.522,39.81C34.627,43.676 25.194,48.872 25.194,48.872C25.194,48.872 15.734,43.676 14.84,39.81C14.683,39.595 14.511,41.82 14.742,42.842C14.788,42.918 8.76,37.183 7.903,28.211C7.903,28.211 6.366,18.337 14.156,13.178C14.288,13.076 16.123,9.44 19.935,11.729L30.426,11.729ZM20.663,26.139L20.663,26.587C20.663,27.475 19.968,28.24 18.763,28.24C17.172,28.24 16.616,27.043 16.616,25.46L16.616,24.186C16.616,22.471 17.35,21.498 18.694,21.498C19.821,21.498 20.478,22.185 20.586,23.081L23.057,23.081C23.011,21.166 21.536,19.413 18.709,19.413C15.689,19.413 14.037,21.359 14.037,24.162L14.037,25.468C14.037,28.225 15.442,30.333 18.701,30.333C21.667,30.333 23.065,28.449 23.065,26.394L23.065,24.348L18.833,24.348L18.833,26.139L20.663,26.139ZM27.25,19.598L24.694,19.598L24.694,30.14L27.25,30.14L27.25,19.598ZM36.324,19.598L29.297,19.598L29.297,30.14L31.853,30.14L31.853,26.17L35.923,26.17L35.923,24.178L31.853,24.178L31.853,21.645L36.324,21.645L36.324,19.598Z" style="fill:rgb(0,114,177);"/>
</svg>
