<?xml version="1.0" encoding="UTF-8" standalone="no"?>
<!DOCTYPE svg PUBLIC "-//W3C//DTD SVG 1.1//EN" "http://www.w3.org/Graphics/SVG/1.1/DTD/svg11.dtd">
<svg width="100%" height="100%" viewBox="0 0 922 916" version="1.1" xmlns="http://www.w3.org/2000/svg" xmlns:xlink="http://www.w3.org/1999/xlink" xml:space="preserve" xmlns:serif="http://www.serif.com/" style="fill-rule:evenodd;clip-rule:evenodd;stroke-linecap:round;stroke-miterlimit:10;">
    <g id="Layer-1" serif:id="Layer 1">
        <rect x="-15.256" y="-20.365" width="963.489" height="1001.78" style="fill:rgb(255,148,0);"/>
    </g>
    <g transform="matrix(1.13232,0,0,1.13232,-53.3258,-55.3693)">
        <clipPath id="_clip1">
            <path d="M19.5,455.5C19.5,700.715 218.286,899.5 463.5,899.5C708.715,899.5 907.5,700.715 907.5,455.5C907.5,210.286 708.715,11.5 463.5,11.5C218.286,11.5 19.5,210.286 19.5,455.5Z" clip-rule="nonzero"/>
        </clipPath>
        <g clip-path="url(#_clip1)">
            <g>
                <clipPath id="_clip2">
                    <rect x="306.618" y="641.301" width="292.582" height="264.415" clip-rule="nonzero"/>
                </clipPath>
                <g clip-path="url(#_clip2)">
                    <g transform="matrix(-0.98368,0.179924,0.179924,0.98368,305.579,721.449)">
                        <path d="M-286.769,64.087L10.667,64.087L-15.442,-78.653L-303.249,-26.011L-286.769,64.087Z" style="fill:rgb(58,130,176);fill-rule:nonzero;"/>
                    </g>
                    <g transform="matrix(-1,-0,-0,1,306.617,732.893)">
                        <path d="M-292.582,172.823L0,172.823L0,53.515L-292.582,0L-292.582,172.823Z" style="fill:rgb(65,144,195);fill-rule:nonzero;"/>
                    </g>
                </g>
            </g>
            <g transform="matrix(1,0,0,1,304.045,395.945)">
                <path d="M0,-17.554C-82.957,-119.56 -79.072,94.508 -5.345,102.006L0,-17.554Z" style="fill:rgb(58,130,176);fill-rule:nonzero;"/>
            </g>
            <g transform="matrix(1,0,0,1,615.836,409.385)">
                <path d="M0,-22.394C88.453,-119.673 72.774,93.857 -1.254,97.279L0,-22.394Z" style="fill:rgb(58,130,176);fill-rule:nonzero;"/>
            </g>
            <g>
                <clipPath id="_clip3">
                    <rect x="284.766" y="98.172" width="350.743" height="620.907" clip-rule="nonzero"/>
                </clipPath>
                <g clip-path="url(#_clip3)">
                    <g transform="matrix(1,0,0,1,336.365,359.217)">
                        <path d="M0,157.32C0,157.32 -3.619,241.869 -18.724,245.314C-28.685,247.589 -40.592,105.225 -47.569,7.73L-43.8,-128.935C-41.74,-203.629 21.056,-263.054 95.75,-260.993L167.047,-259.027C241.728,-256.967 301.153,-194.171 299.092,-119.477L295.749,1.766C239.162,420.374 245.084,181.818 245.084,181.818L123.723,172.035L0,157.32Z" style="fill:rgb(71,159,215);fill-rule:nonzero;"/>
                    </g>
                    <g transform="matrix(1,0,0,1,317.641,536.043)">
                        <path d="M0,68.488C15.104,65.043 18.724,-19.506 18.724,-19.506L142.447,-4.791L263.808,4.992C263.808,4.992 257.885,243.548 314.472,-175.06L312.2,-92.675L310.017,-13.57L294.666,122.982C294.666,122.982 292.807,186.649 155.935,182.875L110.157,181.612C-18.469,178.064 -25.074,114.163 -25.074,114.163L-32.875,-23.028L-30.693,-102.133L-28.846,-169.096C-21.868,-71.601 -9.961,70.762 0,68.488" style="fill:rgb(19,68,97);fill-rule:nonzero;"/>
                    </g>
                </g>
            </g>
            <g transform="matrix(1,0,0,1,420.412,391.61)">
                <path d="M0,2.508C-0.466,19.413 -21.192,32.555 -46.292,31.863C-71.393,31.171 -91.362,16.905 -90.896,0.001C-90.43,-16.904 -69.704,-30.047 -44.604,-29.354C-19.503,-28.662 0.466,-14.397 0,2.508" style="fill:rgb(65,144,195);fill-rule:nonzero;"/>
            </g>
            <g transform="matrix(1,0,0,1,599.81,397.847)">
                <path d="M0,2.507C-0.467,19.412 -21.192,32.554 -46.292,31.862C-71.393,31.17 -91.362,16.904 -90.896,0C-90.43,-16.905 -69.704,-30.047 -44.604,-29.355C-19.504,-28.662 0.466,-14.397 0,2.507" style="fill:rgb(65,144,195);fill-rule:nonzero;"/>
            </g>
            <g transform="matrix(1,0,0,1,586.786,509.951)">
                <path d="M0,-167.523C-13.917,-180.258 -67.869,-184.321 -91,-158.281C-91.036,-156.977 -95.2,-0.851 -95.2,-0.851C-95.2,-0.851 -131.601,16.798 -182.29,-14.446" style="fill:none;stroke:rgb(5,54,80);stroke-width:11.36px;"/>
            </g>
            <g transform="matrix(-0.988481,-0.151345,-0.151345,0.988481,352.703,301.809)">
                <path d="M-79.309,31.571C-79.309,31.571 -42.716,-0.872 -1.507,31.571" style="fill:none;stroke:rgb(5,54,80);stroke-width:11.36px;"/>
            </g>
            <g transform="matrix(1,0,0,1,569.001,397.695)">
                <path d="M0,-16.416C7.394,-12.853 12.115,-8.564 12.635,-8.267C8.875,-4.509 4.244,-1.83 -0.826,0C0.405,-2.631 1.115,-5.534 1.2,-8.608C1.276,-11.348 0.847,-13.985 0,-16.416" style="fill:rgb(5,54,80);fill-rule:nonzero;"/>
            </g>
            <g transform="matrix(1,0,0,1,569.001,393.604)">
                <path d="M0,-12.325C0.847,-9.894 1.276,-7.257 1.2,-4.517C1.115,-1.443 0.405,1.46 -0.826,4.091C-13.011,8.543 -27.714,8.201 -39.044,6.872C-41.403,3.267 -42.725,-1.081 -42.597,-5.725C-42.554,-7.294 -42.344,-8.82 -41.995,-10.291C-25.522,-20.868 -10.047,-17.223 0,-12.325" style="fill:rgb(5,54,80);fill-rule:nonzero;"/>
            </g>
            <g transform="matrix(1,0,0,1,527.006,400.476)">
                <path d="M0,-17.163C-0.349,-15.692 -0.559,-14.166 -0.602,-12.597C-0.729,-7.954 0.592,-3.605 2.951,0C-7.506,-1.241 -15.068,-3.342 -15.068,-3.342C-10.033,-9.485 -4.966,-13.979 0,-17.163" style="fill:rgb(5,54,80);fill-rule:nonzero;"/>
            </g>
            <g transform="matrix(1,0,0,1,407.436,399.026)">
                <path d="M0,-19.036C6.769,-14.306 10.531,-9.774 10.531,-9.774C-0.354,-2.029 -12.213,0 -23.312,-0.834L-23.292,-1.078C-22.92,-1.055 -22.534,-1.031 -22.162,-1.021C-11.189,-0.719 -1.873,-8.545 0,-19.036" style="fill:rgb(5,54,80);fill-rule:nonzero;"/>
            </g>
            <g transform="matrix(1,0,0,1,407.436,384.974)">
                <path d="M0,-4.984C-1.873,5.507 -11.189,13.333 -22.162,13.031C-22.534,13.021 -22.92,12.997 -23.292,12.974C-34.84,12.063 -43.786,2.252 -43.462,-9.465C-43.416,-11.176 -43.177,-12.83 -42.747,-14.401C-24.167,-18.317 -9.27,-11.457 0,-4.984" style="fill:rgb(5,54,80);fill-rule:nonzero;"/>
            </g>
            <g transform="matrix(1,0,0,1,384.144,370.817)">
                <path d="M0,27.131L-0.02,27.375C-23.747,25.613 -44.05,10.804 -44.05,10.804C-35.324,4.788 -27.081,1.36 -19.455,-0.244C-19.884,1.327 -20.123,2.981 -20.17,4.692C-20.493,16.409 -11.547,26.22 0,27.131" style="fill:rgb(5,54,80);fill-rule:nonzero;"/>
            </g>
            <g>
                <clipPath id="_clip4">
                    <rect x="368.325" y="540.422" width="178.442" height="64.211" clip-rule="nonzero"/>
                </clipPath>
                <g clip-path="url(#_clip4)">
                    <g transform="matrix(1,0,0,1,368.325,575.102)">
                        <path d="M0,-34.68L178.442,-14.312C178.442,-14.312 173.175,-8.625 164.144,-1.344C96.668,0 39.941,-9.417 12.831,-14.966C8.474,-20.827 4.201,-27.381 0,-34.68" style="fill:white;fill-rule:nonzero;"/>
                    </g>
                    <g transform="matrix(1,0,0,1,532.469,580.199)">
                        <path d="M0,-6.441C-7.926,-0.056 -18.742,7.549 -31.435,13.622L-133.586,-0.046C-139.574,-5.58 -145.506,-12.206 -151.313,-20.063C-124.203,-14.514 -67.476,-5.097 0,-6.441" style="fill:rgb(0,23,46);fill-rule:nonzero;"/>
                    </g>
                    <g transform="matrix(1,0,0,1,501.034,599.6)">
                        <path d="M0,-5.779C-28.45,7.827 -66.34,13.669 -102.152,-19.448L0,-5.779Z" style="fill:white;fill-rule:nonzero;"/>
                    </g>
                </g>
            </g>
            <g>
                <g opacity="0.149994">
                    <g transform="matrix(1,0,0,1,416.578,355.882)">
                        <clipPath id="_clip5">
                            <rect x="-90.526" y="-0.006" width="104.523" height="75.093" clip-rule="nonzero"/>
                        </clipPath>
                        <g clip-path="url(#_clip5)">
                            <path d="M0,75.08L-78.912,72.485C-85.513,72.268 -90.736,66.69 -90.52,60.089L-88.925,11.608C-88.708,5.006 -83.129,-0.217 -76.528,0L2.383,2.595C8.984,2.812 14.208,8.391 13.991,14.992L12.396,63.473C12.18,70.074 6.601,75.297 0,75.08" style="fill:white;fill-rule:nonzero;"/>
                        </g>
                    </g>
                </g>
            </g>
            <g>
                <g opacity="0.149994">
                    <g transform="matrix(1,0,0,1,599.108,361.884)">
                        <clipPath id="_clip6">
                            <rect x="-90.525" y="-0.006" width="104.523" height="75.093" clip-rule="nonzero"/>
                        </clipPath>
                        <g clip-path="url(#_clip6)">
                            <path d="M0,75.08L-78.911,72.485C-85.513,72.268 -90.736,66.69 -90.519,60.088L-88.925,11.607C-88.708,5.006 -83.129,-0.217 -76.528,0L2.384,2.595C8.984,2.812 14.208,8.391 13.991,14.992L12.396,63.473C12.18,70.074 6.602,75.297 0,75.08" style="fill:white;fill-rule:nonzero;"/>
                        </g>
                    </g>
                </g>
            </g>
            <g>
                <g opacity="0.389999">
                    <g>
                        <clipPath id="_clip7">
                            <path d="M416.578,430.962L337.667,428.368C331.065,428.151 325.842,422.572 326.059,415.971L327.653,367.49C327.87,360.889 333.449,355.666 340.05,355.882L418.961,358.477C425.562,358.694 430.786,364.273 430.569,370.874L428.975,419.355C428.758,425.956 423.179,431.18 416.578,430.962Z" clip-rule="nonzero"/>
                        </clipPath>
                        <g clip-path="url(#_clip7)">
                            <g>
                                <g opacity="0.160004">
                                    <g transform="matrix(-0.958086,0.286481,0.286481,0.958086,332.786,349.4)">
                                        <rect x="-25.701" y="-3.76" width="8.367" height="122.242" style="fill:white;"/>
                                    </g>
                                </g>
                            </g>
                            <g>
                                <g opacity="0.160004">
                                    <g transform="matrix(-0.958082,0.286494,0.286494,0.958082,351.48,352.643)">
                                        <rect x="-44.659" y="-6.534" width="27.73" height="122.242" style="fill:white;"/>
                                    </g>
                                </g>
                            </g>
                        </g>
                    </g>
                </g>
            </g>
            <g>
                <g opacity="0.389999">
                    <g>
                        <clipPath id="_clip8">
                            <path d="M599.108,436.964L520.197,434.37C513.596,434.152 508.372,428.574 508.59,421.973L510.184,373.492C510.4,366.891 515.979,361.667 522.58,361.884L601.492,364.479C608.093,364.696 613.316,370.275 613.1,376.876L611.505,425.357C611.288,431.958 605.71,437.181 599.108,436.964Z" clip-rule="nonzero"/>
                        </clipPath>
                        <g clip-path="url(#_clip8)">
                            <g>
                                <g opacity="0.160004">
                                    <g transform="matrix(-0.958086,0.286481,0.286481,0.958086,519.824,349.4)">
                                        <rect x="-25.701" y="-3.76" width="8.367" height="122.242" style="fill:white;"/>
                                    </g>
                                </g>
                            </g>
                            <g>
                                <g opacity="0.160004">
                                    <g transform="matrix(-0.958082,0.286494,0.286494,0.958082,538.518,352.643)">
                                        <rect x="-44.659" y="-6.534" width="27.73" height="122.242" style="fill:white;"/>
                                    </g>
                                </g>
                            </g>
                        </g>
                    </g>
                </g>
            </g>
            <g transform="matrix(1,0,0,1,416.578,355.882)">
                <path d="M0,75.08L-78.912,72.485C-85.513,72.268 -90.736,66.69 -90.52,60.089L-88.925,11.608C-88.708,5.006 -83.129,-0.217 -76.528,0L2.383,2.595C8.984,2.812 14.208,8.391 13.991,14.992L12.396,63.473C12.18,70.074 6.601,75.297 0,75.08Z" style="fill:none;stroke:rgb(19,68,97);stroke-width:3.41px;stroke-linecap:butt;"/>
            </g>
            <g transform="matrix(1,0,0,1,599.108,361.884)">
                <path d="M0,75.08L-78.911,72.485C-85.513,72.268 -90.736,66.69 -90.519,60.088L-88.925,11.607C-88.708,5.006 -83.129,-0.217 -76.528,0L2.384,2.595C8.984,2.812 14.208,8.391 13.991,14.992L12.396,63.473C12.18,70.074 6.602,75.297 0,75.08Z" style="fill:none;stroke:rgb(19,68,97);stroke-width:3.41px;stroke-linecap:butt;"/>
            </g>
        </g>
    </g>
</svg>
