<?xml version="1.0" encoding="UTF-8" standalone="no"?>
<!DOCTYPE svg PUBLIC "-//W3C//DTD SVG 1.1//EN" "http://www.w3.org/Graphics/SVG/1.1/DTD/svg11.dtd">
<svg width="100%" height="100%" viewBox="0 0 50 50" version="1.1" xmlns="http://www.w3.org/2000/svg" xmlns:xlink="http://www.w3.org/1999/xlink" xml:space="preserve" xmlns:serif="http://www.serif.com/" style="fill-rule:evenodd;clip-rule:evenodd;stroke-linejoin:round;stroke-miterlimit:1.41421;">
    <g id="bear" transform="matrix(0.639787,0,0,0.646956,3.90347,7.63198)">
        <g transform="matrix(0.0529897,0,0,0.0529897,-14.4341,-6.76207)">
            <path d="M745.266,247.114C632.838,180.344 578.693,286.415 574.809,289.396C345.023,439.882 390.368,727.887 390.368,727.887C415.654,989.613 593.46,1156.91 592.084,1154.67C585.289,1124.86 590.364,1059.98 594.973,1066.25C621.363,1179 900.396,1330.58 900.396,1330.58C900.396,1330.58 1178.64,1179 1205.03,1066.25C1209.64,1059.98 1214.71,1124.86 1207.92,1154.67C1206.54,1156.91 1384.35,989.613 1409.63,727.887C1409.63,727.887 1454.98,439.882 1225.19,289.396C1221.31,286.415 1167.16,180.344 1054.73,247.114" style="fill:rgb(0,114,177);"/>
        </g>
        <g transform="matrix(0.548481,0,0,0.548481,-437.546,-292.172)">
            <path d="M860.487,595.643L860.487,566.126L870.618,566.126L870.618,562.318L846.131,562.318L846.131,566.126L856.263,566.126L856.263,595.643L860.487,595.643Z" style="fill:rgb(0,114,177);fill-rule:nonzero;"/>
        </g>
        <g transform="matrix(0.067418,0,0,0.0594211,-20.7212,-9.76743)">
            <path d="M555.889,312.29C555.889,312.29 498.144,179.518 417.145,246.317C370.195,285.036 350.63,422.246 516.099,434.255C529.867,435.254 555.889,312.29 555.889,312.29Z" style="fill:rgb(0,114,177);"/>
        </g>
        <g transform="matrix(0.0643587,0,0,0.0618153,-24.3529,-7.85632)">
            <path d="M745.266,245.747C745.266,245.747 875.048,136.41 1054.73,245.747" style="fill:rgb(0,114,177);"/>
        </g>
        <g transform="matrix(-0.067418,0,0,0.0594211,86.6698,-10.2649)">
            <path d="M555.889,312.29C555.889,312.29 498.144,179.518 417.145,246.317C370.195,285.036 350.63,422.246 516.099,434.255C529.867,435.254 555.889,312.29 555.889,312.29Z" style="fill:rgb(0,114,177);"/>
        </g>
    </g>
    <g transform="matrix(0.29884,0,0,0.29884,11.4552,25.7188)">
        <text x="11.933px" y="12px" style="font-family:'SFCompactDisplay-Regular', 'SF Compact Display', sans-serif;font-size:50px;fill:white;">{...}</text>
    </g>
</svg>
