<?xml version="1.0" encoding="UTF-8" standalone="no"?>
<!DOCTYPE svg PUBLIC "-//W3C//DTD SVG 1.1//EN" "http://www.w3.org/Graphics/SVG/1.1/DTD/svg11.dtd">
<svg width="100%" height="100%" viewBox="0 0 50 50" version="1.1" xmlns="http://www.w3.org/2000/svg" xmlns:xlink="http://www.w3.org/1999/xlink" xml:space="preserve" xmlns:serif="http://www.serif.com/" style="fill-rule:evenodd;clip-rule:evenodd;stroke-linejoin:round;stroke-miterlimit:1.41421;">
    <g id="bear" transform="matrix(0.639787,0,0,0.646956,3.90347,7.63198)">
        <g transform="matrix(0.067418,0,0,0.0594211,-20.7212,-9.76743)">
            <path d="M555.889,312.29C555.889,312.29 498.144,179.518 417.145,246.317C370.195,285.036 350.63,422.246 516.099,434.255C529.867,435.254 555.889,312.29 555.889,312.29Z" style="fill:rgb(0,114,177);"/>
        </g>
        <g transform="matrix(0.0643587,0,0,0.0618153,-24.3529,-7.85632)">
            <path d="M745.266,245.747C745.266,245.747 875.048,136.41 1054.73,245.747" style="fill:rgb(0,114,177);"/>
        </g>
        <g transform="matrix(-0.067418,0,0,0.0594211,86.6698,-10.2649)">
            <path d="M555.889,312.29C555.889,312.29 498.144,179.518 417.145,246.317C370.195,285.036 350.63,422.246 516.099,434.255C529.867,435.254 555.889,312.29 555.889,312.29Z" style="fill:rgb(0,114,177);"/>
        </g>
    </g>
    <path d="M30.426,11.729C34.238,9.44 36.074,13.076 36.205,13.178C43.996,18.337 42.458,28.211 42.458,28.211C41.601,37.183 35.573,42.918 35.62,42.842C35.85,41.82 35.678,39.595 35.522,39.81C34.627,43.676 25.194,48.872 25.194,48.872C25.194,48.872 15.734,43.676 14.84,39.81C14.683,39.595 14.511,41.82 14.742,42.842C14.788,42.918 8.76,37.183 7.903,28.211C7.903,28.211 6.366,18.337 14.156,13.178C14.288,13.076 16.123,9.44 19.935,11.729L30.426,11.729ZM19.437,18.821L19.021,18.821C17.35,18.821 16.365,19.448 16.365,21.199L16.365,22.921C16.365,23.935 16.125,24.395 15.125,24.395L15.125,25.715C16.125,25.715 16.365,26.168 16.365,27.182L16.365,29.115C16.365,30.866 17.35,31.559 19.021,31.559L19.437,31.559L19.437,30.567L19.138,30.567C17.949,30.567 17.533,30.086 17.533,29.028L17.533,26.766C17.533,25.752 17.109,25.205 16.292,25.132L16.292,24.964C17.109,24.884 17.533,24.373 17.533,23.351L17.533,21.345C17.533,20.287 17.949,19.806 19.138,19.806L19.437,19.806L19.437,18.821ZM30.986,18.821L30.563,18.821L30.563,19.806L30.862,19.806C32.059,19.806 32.475,20.287 32.475,21.345L32.475,23.351C32.475,24.373 32.905,24.884 33.715,24.964L33.715,25.132C32.905,25.205 32.475,25.752 32.475,26.766L32.475,29.028C32.475,30.086 32.059,30.567 30.862,30.567L30.563,30.567L30.563,31.559L30.986,31.559C32.65,31.559 33.635,30.866 33.642,29.115L33.642,27.182C33.642,26.168 33.883,25.715 34.875,25.715L34.875,24.395C33.883,24.395 33.642,23.935 33.642,22.921L33.642,21.199C33.642,19.448 32.65,18.821 30.986,18.821ZM20.655,28.604C20.655,29.064 21.035,29.444 21.494,29.444C21.961,29.444 22.341,29.064 22.341,28.604C22.341,28.138 21.961,27.758 21.494,27.758C21.035,27.758 20.655,28.138 20.655,28.604ZM24.172,28.604C24.172,29.064 24.551,29.444 25.011,29.444C25.478,29.444 25.857,29.064 25.857,28.604C25.857,28.138 25.478,27.758 25.011,27.758C24.551,27.758 24.172,28.138 24.172,28.604ZM27.689,28.604C27.689,29.064 28.068,29.444 28.528,29.444C28.995,29.444 29.374,29.064 29.374,28.604C29.374,28.138 28.995,27.758 28.528,27.758C28.068,27.758 27.689,28.138 27.689,28.604Z" style="fill:rgb(0,114,177);"/>
</svg>
