<?xml version="1.0" encoding="UTF-8" standalone="no"?>
<!DOCTYPE svg PUBLIC "-//W3C//DTD SVG 1.1//EN" "http://www.w3.org/Graphics/SVG/1.1/DTD/svg11.dtd">
<svg width="100%" height="100%" viewBox="0 0 50 50" version="1.1" xmlns="http://www.w3.org/2000/svg" xmlns:xlink="http://www.w3.org/1999/xlink" xml:space="preserve" xmlns:serif="http://www.serif.com/" style="fill-rule:evenodd;clip-rule:evenodd;stroke-linejoin:round;stroke-miterlimit:1.41421;">
    <g id="bear" transform="matrix(0.639787,0,0,0.646956,3.90347,7.63198)">
        <g transform="matrix(0.067418,0,0,0.0594211,-20.7212,-9.76743)">
            <path d="M555.889,312.29C555.889,312.29 498.144,179.518 417.145,246.317C370.195,285.036 350.63,422.246 516.099,434.255C529.867,435.254 555.889,312.29 555.889,312.29Z" style="fill:rgb(0,114,177);"/>
        </g>
        <g transform="matrix(0.0643587,0,0,0.0618153,-24.3529,-7.85632)">
            <path d="M745.266,245.747C745.266,245.747 875.048,136.41 1054.73,245.747" style="fill:rgb(0,114,177);"/>
        </g>
        <g transform="matrix(-0.067418,0,0,0.0594211,86.6698,-10.2649)">
            <path d="M555.889,312.29C555.889,312.29 498.144,179.518 417.145,246.317C370.195,285.036 350.63,422.246 516.099,434.255C529.867,435.254 555.889,312.29 555.889,312.29Z" style="fill:rgb(0,114,177);"/>
        </g>
    </g>
    <path d="M30.426,11.729C34.238,9.44 36.074,13.076 36.205,13.178C43.996,18.337 42.458,28.211 42.458,28.211C41.601,37.183 35.573,42.918 35.62,42.842C35.85,41.82 35.678,39.595 35.522,39.81C34.627,43.676 25.194,48.872 25.194,48.872C25.194,48.872 15.734,43.676 14.84,39.81C14.683,39.595 14.511,41.82 14.742,42.842C14.788,42.918 8.76,37.183 7.903,28.211C7.903,28.211 6.366,18.337 14.156,13.178C14.288,13.076 16.123,9.44 19.935,11.729L30.426,11.729ZM26.625,32.013L25.408,33.137L25.408,43.014C26.62,43.025 27.055,41.291 26.12,40.574C26.654,35.801 30.334,32.465 30.709,32.48C27.814,28.361 28.138,19.953 28.149,19.69L28.149,19.683L22.214,19.683C22.214,19.683 22.593,28.296 19.653,32.48C20.026,32.465 23.706,35.801 24.242,40.574C23.305,41.291 23.742,43.025 24.952,43.014L24.952,33.137L23.736,32.013L26.625,32.013ZM28.488,16.464L28.488,15.404L21.872,15.404L21.872,16.464L21.173,16.464C20.482,16.464 19.922,17.023 19.922,17.712C19.922,18.403 20.482,18.963 21.173,18.963L29.189,18.963C29.878,18.963 30.44,18.403 30.44,17.712C30.44,17.023 29.878,16.464 29.189,16.464L28.488,16.464Z" style="fill:rgb(0,114,177);"/>
</svg>
