<?xml version="1.0" encoding="UTF-8" standalone="no"?>
<!DOCTYPE svg PUBLIC "-//W3C//DTD SVG 1.1//EN" "http://www.w3.org/Graphics/SVG/1.1/DTD/svg11.dtd">
<svg width="100%" height="100%" viewBox="0 0 50 50" version="1.1" xmlns="http://www.w3.org/2000/svg" xmlns:xlink="http://www.w3.org/1999/xlink" xml:space="preserve" xmlns:serif="http://www.serif.com/" style="fill-rule:evenodd;clip-rule:evenodd;stroke-linejoin:round;stroke-miterlimit:1.41421;">
    <g id="bear" transform="matrix(0.639787,0,0,0.646956,3.90347,7.63198)">
        <g transform="matrix(0.067418,0,0,0.0594211,-20.7212,-9.76743)">
            <path d="M555.889,312.29C555.889,312.29 498.144,179.518 417.145,246.317C370.195,285.036 350.63,422.246 516.099,434.255C529.867,435.254 555.889,312.29 555.889,312.29Z" style="fill:rgb(0,114,177);"/>
        </g>
        <g transform="matrix(0.0643587,0,0,0.0618153,-24.3529,-7.85632)">
            <path d="M745.266,245.747C745.266,245.747 875.048,136.41 1054.73,245.747" style="fill:rgb(0,114,177);"/>
        </g>
        <g transform="matrix(-0.067418,0,0,0.0594211,86.6698,-10.2649)">
            <path d="M555.889,312.29C555.889,312.29 498.144,179.518 417.145,246.317C370.195,285.036 350.63,422.246 516.099,434.255C529.867,435.254 555.889,312.29 555.889,312.29Z" style="fill:rgb(0,114,177);"/>
        </g>
    </g>
    <path d="M30.426,11.729C34.238,9.44 36.074,13.076 36.205,13.178C43.996,18.337 42.458,28.211 42.458,28.211C41.601,37.183 35.573,42.918 35.62,42.842C35.85,41.82 35.678,39.595 35.522,39.81C34.627,43.676 25.194,48.872 25.194,48.872C25.194,48.872 15.734,43.676 14.84,39.81C14.683,39.595 14.511,41.82 14.742,42.842C14.788,42.918 8.76,37.183 7.903,28.211C7.903,28.211 6.366,18.337 14.156,13.178C14.288,13.076 16.123,9.44 19.935,11.729L30.426,11.729ZM25.045,40.147C24.923,40.174 24.788,40.145 24.677,40.027L11.94,24.434C11.781,24.209 11.789,24.158 11.918,23.936L16.874,16.646C17,16.484 17.071,16.481 17.19,16.465C19.798,16.285 22.4,15.916 25.015,15.93C25.019,15.93 25.024,15.93 25.029,15.93C27.623,16.108 30.216,16.286 32.81,16.465C32.93,16.481 33,16.484 33.126,16.646L38.082,23.936C38.22,24.175 38.208,24.225 38.06,24.434L25.323,40.027C25.243,40.111 25.144,40.147 25.045,40.147ZM32.385,24.718C29.924,24.705 27.461,24.633 25.001,24.639L25,24.639C22.536,24.765 20.068,24.736 17.6,24.689L24.998,38.868L32.385,24.718ZM13.163,24.615L22.745,36.345L16.65,24.67C15.488,24.647 14.325,24.623 13.163,24.615ZM36.811,24.646C35.649,24.697 34.487,24.717 33.324,24.719L27.255,36.345L36.811,24.646ZM17.832,23.79L24.971,23.808C24.98,23.807 24.99,23.806 24.999,23.805L32.152,23.79L24.912,17.014L17.832,23.79ZM33.571,23.761L36.967,23.778L33.244,18.302L33.571,23.761ZM13.035,23.776L16.429,23.761L16.756,18.302L13.035,23.776ZM32.701,23.163L32.351,17.268L25.929,16.827L32.701,23.163ZM17.653,17.268L17.301,23.145L23.893,16.839L17.653,17.268Z" style="fill:rgb(0,114,177);"/>
</svg>
