<?xml version="1.0" encoding="UTF-8" standalone="no"?>
<!DOCTYPE svg PUBLIC "-//W3C//DTD SVG 1.1//EN" "http://www.w3.org/Graphics/SVG/1.1/DTD/svg11.dtd">
<svg width="100%" height="100%" viewBox="0 0 50 50" version="1.1" xmlns="http://www.w3.org/2000/svg" xmlns:xlink="http://www.w3.org/1999/xlink" xml:space="preserve" xmlns:serif="http://www.serif.com/" style="fill-rule:evenodd;clip-rule:evenodd;stroke-linejoin:round;stroke-miterlimit:1.41421;">
    <g id="bear" transform="matrix(0.639787,0,0,0.646956,3.90347,7.63198)">
        <g transform="matrix(0.067418,0,0,0.0594211,-20.7212,-9.76743)">
            <path d="M555.889,312.29C555.889,312.29 498.144,179.518 417.145,246.317C370.195,285.036 350.63,422.246 516.099,434.255C529.867,435.254 555.889,312.29 555.889,312.29Z" style="fill:rgb(0,114,177);"/>
        </g>
        <g transform="matrix(0.0643587,0,0,0.0618153,-24.3529,-7.85632)">
            <path d="M745.266,245.747C745.266,245.747 875.048,136.41 1054.73,245.747" style="fill:rgb(0,114,177);"/>
        </g>
        <g transform="matrix(-0.067418,0,0,0.0594211,86.6698,-10.2649)">
            <path d="M555.889,312.29C555.889,312.29 498.144,179.518 417.145,246.317C370.195,285.036 350.63,422.246 516.099,434.255C529.867,435.254 555.889,312.29 555.889,312.29Z" style="fill:rgb(0,114,177);"/>
        </g>
    </g>
    <g>
        <path d="M30.426,11.729C34.238,9.44 36.074,13.076 36.205,13.178C43.996,18.337 42.458,28.211 42.458,28.211C41.601,37.183 35.573,42.918 35.62,42.842C35.85,41.82 35.678,39.595 35.522,39.81C34.627,43.676 25.194,48.872 25.194,48.872C25.194,48.872 15.734,43.676 14.84,39.81C14.683,39.595 14.511,41.82 14.742,42.842C14.788,42.918 8.76,37.183 7.903,28.211C7.903,28.211 6.366,18.337 14.156,13.178C14.288,13.076 16.123,9.44 19.935,11.729L30.426,11.729ZM13.325,22.766C13.195,22.692 13.063,22.617 12.93,22.544C12.93,22.544 12.483,21.678 13.215,21.774C13.42,21.833 13.42,21.867 13.498,21.915C13.653,22.015 13.808,22.116 13.964,22.217C15.735,21.602 18.249,23.062 20.913,23.026C21.651,23.015 22.388,22.982 23.126,22.989C27.037,23.055 30.801,22.596 35.029,22.681C35.487,22.696 35.898,22.343 36.677,22.881C37.188,22.581 37.773,22.244 37.773,22.244C37.815,22.229 37.86,22.198 38.016,22.213C38.417,22.315 38.628,22.722 37.868,23.121C37.586,23.275 37.316,23.452 37.041,23.619C37.135,24.393 36.877,25.58 36.86,26.78C36.84,27.959 36.804,29.137 36.779,30.316C36.764,31.211 36.781,32.055 36.719,32.943C36.821,33.019 36.888,33.208 37,33.663C37.179,34.389 36.913,34.463 36.546,34.32C36.293,35.384 35.968,34.895 35.257,34.811C28.894,34.398 22.026,34.81 15.079,34.784C14.096,34.82 13.936,34.181 13.963,33.394C13.939,33.341 13.92,33.281 13.906,33.213C13.884,33.105 13.925,33.019 13.993,32.951C14.028,32.563 14.079,32.164 14.08,31.809C14.033,28.899 13.726,25.879 13.925,23.162C13.925,23.162 13.689,23.269 13.517,23.184C13.357,23.104 13.297,22.936 13.325,22.766ZM23.757,28.727C22.439,28.984 21.32,29.475 19.925,30.222C19.65,30.372 19.651,30.372 19.376,30.525C18.469,31.039 17.579,31.581 16.693,32.13C16.046,32.53 15.158,33.165 15.158,33.165C15.098,33.344 14.985,33.489 14.85,33.586C14.963,34.32 15.697,33.962 16.272,33.968C16.708,33.97 17.143,33.967 17.578,33.964C22.232,33.921 26.829,34.187 31.582,33.907C32.951,33.839 34.446,33.754 35.741,34.064C35.741,34.064 35.746,33.989 35.756,33.856C35.678,33.802 35.607,33.752 35.547,33.712C34.646,33.16 33.471,33.057 32.382,32.558C29.451,31.193 26.568,30.027 23.757,28.727ZM36.182,24.061C36.101,24.091 36.019,24.119 35.935,24.143C33.874,24.723 32.165,25.547 28.555,26.653C27.129,27.103 25.955,27.999 24.607,28.487C26.652,29.404 28.697,30.077 30.307,30.685C30.566,30.785 30.568,30.785 30.801,30.888C32.307,31.58 33.789,32.244 35.409,32.75C35.565,32.801 35.702,32.836 35.822,32.858C35.875,32.01 35.938,30.861 35.958,29.906C36.003,27.961 36.086,26.021 36.182,24.07L36.182,24.061ZM14.729,23.616C14.716,23.724 14.703,23.795 14.701,23.914C14.697,24.157 14.696,24.4 14.698,24.643C14.714,27.207 14.821,29.736 14.836,32.326C16.579,30.735 19.021,29.726 21.088,28.572C21.518,28.34 21.99,28.215 22.473,28.12C20.77,27.296 19.096,26.404 17.455,25.367C16.528,24.79 15.649,24.197 14.729,23.616ZM15.284,23.078C17.607,24.592 20.094,26.187 23.141,27.782C23.246,27.836 23.352,27.89 23.458,27.943C23.922,27.857 24.378,27.75 24.8,27.557C27.204,26.456 29.724,25.639 32.289,24.212C33.104,23.768 34.048,23.677 34.931,23.51C33.776,23.487 32.638,23.587 31.439,23.486C31.253,23.473 31.254,23.473 31.068,23.462C28.887,23.358 26.69,23.594 24.544,23.845C21.279,24.179 17.983,23.267 15.284,23.078ZM36.178,17.994C37.263,18.089 36.659,19.55 36.737,20.041C36.763,20.18 36.794,20.318 36.82,20.456C36.831,20.523 36.842,20.59 36.85,20.658C36.933,21.606 35.472,21.429 34.42,21.41C28.738,21.286 23.091,21.478 16.877,21.381C16.723,21.378 16.571,21.372 16.418,21.365C15.89,21.339 15.624,21.346 14.668,21.329C14.334,21.314 13.765,21.304 14.029,20.524C14.049,19.229 14.072,19.334 14.277,18.614C14.277,18.614 14.594,18.2 14.921,18.411C14.921,18.411 16.633,17.974 17.927,17.765C18.703,17.66 19.487,17.725 20.266,17.747C20.417,17.75 20.417,17.75 20.569,17.751C21.409,17.747 22.248,17.707 23.088,17.687C24.085,17.67 24.158,17.676 24.623,17.705C27.236,17.868 29.863,17.914 32.492,18.082C33.507,18.136 34.219,17.891 35.734,17.995C35.879,18.005 35.931,17.984 36.178,17.994ZM23.558,18.511C20.86,18.537 18.014,18.602 15.917,18.899C14.07,19.189 14.952,18.414 14.86,20.492C14.86,20.492 17.009,20.536 18.788,20.575C20.086,20.608 21.384,20.658 22.681,20.701C25.062,20.77 27.492,20.375 29.635,20.388C31.776,20.401 33.741,20.624 35.99,20.617C35.99,20.617 35.833,18.833 35.833,18.833C33.547,18.688 31.225,18.709 28.742,18.619C26.839,18.574 25.395,18.509 23.558,18.511ZM20.963,19.227C21.308,19.237 21.714,19.419 21.801,19.767C21.919,20.242 21.236,20.573 20.644,19.917C20.427,19.667 20.606,19.223 20.963,19.227ZM19.677,19.295C20.194,19.305 20.629,19.786 20.096,20.195C19.638,20.546 18.829,19.285 19.677,19.295ZM18.463,19.129C18.952,19.138 18.958,20.008 18.484,20.175C17.984,20.35 17.527,19.12 18.463,19.129Z" style="fill:rgb(0,114,177);"/>
    </g>
</svg>
