<?xml version="1.0" encoding="UTF-8" standalone="no"?>
<!DOCTYPE svg PUBLIC "-//W3C//DTD SVG 1.1//EN" "http://www.w3.org/Graphics/SVG/1.1/DTD/svg11.dtd">
<svg width="100%" height="100%" viewBox="0 0 50 50" version="1.1" xmlns="http://www.w3.org/2000/svg" xmlns:xlink="http://www.w3.org/1999/xlink" xml:space="preserve" xmlns:serif="http://www.serif.com/" style="fill-rule:evenodd;clip-rule:evenodd;stroke-linecap:round;stroke-linejoin:round;stroke-miterlimit:1.5;">
    <g id="bear" transform="matrix(0.639787,0,0,0.646956,3.90347,7.63198)">
        <g transform="matrix(0.0529897,0,0,0.0529897,-14.4341,-6.76207)">
            <path d="M745.266,247.114C632.838,180.344 578.693,286.415 574.809,289.396C345.023,439.882 390.368,727.887 390.368,727.887C415.654,989.613 593.46,1156.91 592.084,1154.67C585.289,1124.86 590.364,1059.98 594.973,1066.25C621.363,1179 900.396,1330.58 900.396,1330.58C900.396,1330.58 1178.64,1179 1205.03,1066.25C1209.64,1059.98 1214.71,1124.86 1207.92,1154.67C1206.54,1156.91 1384.35,989.613 1409.63,727.887C1409.63,727.887 1454.98,439.882 1225.19,289.396C1221.31,286.415 1167.16,180.344 1054.73,247.114" style="fill:rgb(0,114,177);"/>
        </g>
        <g transform="matrix(0.548481,0,0,0.548481,-437.546,-292.172)">
            <path d="M860.487,595.643L860.487,566.126L870.618,566.126L870.618,562.318L846.131,562.318L846.131,566.126L856.263,566.126L856.263,595.643L860.487,595.643Z" style="fill:rgb(0,114,177);fill-rule:nonzero;"/>
        </g>
        <g transform="matrix(0.067418,0,0,0.0594211,-20.7212,-9.76743)">
            <path d="M555.889,312.29C555.889,312.29 498.144,179.518 417.145,246.317C370.195,285.036 350.63,422.246 516.099,434.255C529.867,435.254 555.889,312.29 555.889,312.29Z" style="fill:rgb(0,114,177);"/>
        </g>
        <g transform="matrix(0.0643587,0,0,0.0618153,-24.3529,-7.85632)">
            <path d="M745.266,245.747C745.266,245.747 875.048,136.41 1054.73,245.747" style="fill:rgb(0,114,177);"/>
        </g>
        <g transform="matrix(-0.067418,0,0,0.0594211,86.6698,-10.2649)">
            <path d="M555.889,312.29C555.889,312.29 498.144,179.518 417.145,246.317C370.195,285.036 350.63,422.246 516.099,434.255C529.867,435.254 555.889,312.29 555.889,312.29Z" style="fill:rgb(0,114,177);"/>
        </g>
    </g>
    <g transform="matrix(0.905154,0,0,0.879898,2.4261,2.00961)">
        <path d="M14.172,18.921C14.697,18.658 15.449,18.689 16.015,18.621C16.443,18.57 16.845,18.414 17.272,18.361C18.189,18.248 19.125,18.362 20.043,18.362C21.397,18.362 22.752,18.25 24.105,18.29C25.143,18.32 26.181,18.52 27.215,18.535C27.842,18.544 28.457,18.384 29.087,18.405C30.199,18.441 31.267,18.565 32.368,18.672C33.418,18.774 34.687,18.835 35.715,18.644C36.131,18.566 36.509,18.625 36.919,18.648C36.974,18.651 37.292,18.615 37.334,18.655C37.631,18.936 37.435,19.993 37.435,20.395C37.435,20.645 37.652,21.301 37.555,21.495C37.452,21.702 36.541,21.588 36.39,21.588C34.999,21.588 33.661,21.528 32.272,21.444C31.051,21.371 29.568,21.302 28.352,21.426C27.578,21.505 26.838,21.751 26.051,21.762C22.769,21.807 19.501,21.547 16.223,21.547C15.557,21.547 14.906,21.485 14.242,21.467C14.002,21.461 13.492,21.527 13.251,21.444C13.136,21.404 13.277,21.201 13.277,21.079C13.277,20.607 13.391,20.224 13.436,19.764C13.452,19.6 13.461,19.436 13.485,19.274C13.497,19.193 13.531,18.952 13.531,19.034" style="fill:none;stroke:white;stroke-width:0.93px;"/>
        <path d="M13.115,23.669C13.228,23.883 13.115,24.385 13.109,24.607C13.089,25.352 13.1,26.099 13.117,26.843C13.169,29.157 13.274,31.465 13.332,33.777C13.355,34.694 13.095,35.874 13.404,36.75C13.423,36.804 13.956,36.776 13.971,36.776C14.475,36.776 14.979,36.793 15.483,36.793C17.724,36.793 19.966,36.735 22.203,36.706C24.694,36.674 27.178,36.918 29.66,36.918C30.735,36.918 31.858,36.677 32.962,36.71C34.061,36.743 35.161,36.765 36.26,36.805C36.542,36.815 36.862,36.976 37.138,36.933C37.154,36.93 37.166,36.779 37.183,36.751C37.31,36.541 37.285,36.308 37.309,36.07C37.383,35.348 37.476,34.681 37.476,33.946C37.476,31.566 37.595,29.186 37.595,26.805C37.595,26.09 37.935,24.808 37.623,24.148C37.555,24.002 36.634,24.002 36.506,23.992C35.177,23.879 33.851,24.123 32.508,23.977C30.279,23.736 27.939,24.004 25.707,24.144C25.096,24.182 24.482,24.41 23.867,24.36C22.334,24.235 20.817,24.407 19.282,24.346C18.25,24.305 17.259,24.002 16.246,23.846C15.314,23.703 14.514,23.443 13.58,23.443C13.199,23.443 12.759,23.378 12.458,23.642" style="fill:none;stroke:white;stroke-width:0.93px;"/>
        <path d="M11.826,22.924C12.401,23.241 12.937,23.865 13.482,24.256C14.397,24.913 15.496,25.307 16.454,25.898C17.861,26.764 19.177,27.827 20.637,28.604C22.156,29.413 23.763,30.363 25.364,30.997C26.518,31.455 27.768,31.667 28.856,32.277C29.619,32.705 30.451,32.91 31.232,33.285C32.466,33.878 33.638,34.509 34.923,35.001C35.513,35.227 36.256,35.282 36.792,35.603C37.049,35.757 37.23,35.995 37.469,36.172C37.47,36.173 37.715,36.339 37.734,36.301C37.846,36.083 37.606,35.828 37.538,35.592" style="fill:none;stroke:white;stroke-width:0.93px;"/>
        <path d="M39.24,23.426C38.415,23.799 37.802,24.439 36.896,24.7C35.928,24.979 34.945,24.885 33.985,25.267C33.034,25.646 32.241,26.331 31.285,26.714C29.958,27.246 28.526,27.533 27.222,28.115C26.285,28.534 25.52,29.261 24.556,29.611C23.457,30.01 22.257,30.021 21.168,30.443C20.644,30.646 20.229,31.048 19.736,31.31C18.065,32.199 16.506,33.201 14.93,34.207C14.524,34.466 14.019,34.758 13.698,35.122C13.597,35.237 13.577,35.612 13.446,35.678C13.312,35.744 13.155,35.406 13.132,35.367" style="fill:none;stroke:white;stroke-width:0.93px;"/>
        <path d="M17.523,20.075C17.699,20.075 17.642,20.24 17.52,20.197C17.404,20.157 17.674,19.942 17.706,19.929C17.741,19.915 17.711,20.064 17.685,20.038" style="fill:none;stroke:white;stroke-width:0.93px;"/>
        <path d="M19.049,20.116C19.104,20.116 19.41,20.123 19.242,20.293C19.217,20.318 19.067,20.18 19.048,20.16C18.98,20.091 19.239,20.132 19.335,20.132C19.375,20.132 19.257,20.127 19.217,20.127" style="fill:none;stroke:white;stroke-width:0.93px;"/>
        <path d="M20.731,20.142C20.794,20.142 21.042,20.259 20.935,20.366C20.858,20.443 20.548,20.085 20.47,20.039" style="fill:none;stroke:white;stroke-width:0.93px;"/>
    </g>
</svg>
